<svg width="117" height="31" viewBox="0 0 117 31" fill="none" xmlns="http://www.w3.org/2000/svg">
<path d="M6.35209 2.37973L4.48755 1.84033V1.68168L9.89157 0H9.92317L4.17152 19.9263H4.45595L6.03607 16.9754L7.04735 15.0716C8.01649 13.2102 8.77495 11.8141 9.32272 10.8833C9.89157 9.93142 10.4499 9.18048 10.9977 8.6305C11.5665 8.05937 12.1564 7.7738 12.7674 7.7738C13.273 7.7738 13.7576 7.9536 14.2211 8.3132C14.6846 8.67281 15.0638 9.19106 15.3588 9.86796C15.6537 10.5449 15.8012 11.3275 15.8012 12.216C15.8012 14.0563 15.2218 15.9495 14.0631 17.8956C12.9254 19.8205 11.5244 21.4282 9.85996 22.7185C8.21664 24.0089 6.71025 24.654 5.34081 24.654C4.79304 24.654 4.27687 24.5589 3.79229 24.3685C3.32879 24.1781 2.67567 23.8608 1.83294 23.4166L1.20089 23.0676L0.158012 24.5906H0L6.35209 2.37973ZM3.50787 22.3695C4.13992 22.9618 4.65609 23.3954 5.05639 23.6704C5.47776 23.9454 5.93073 24.0829 6.4153 24.0829C7.32123 24.0829 8.27984 23.5223 9.29112 22.4012C10.3024 21.259 11.1451 19.8311 11.8193 18.1177C12.5146 16.3831 12.8622 14.6803 12.8622 13.0092C12.8622 12.0362 12.7042 11.3275 12.3882 10.8833C12.0932 10.4179 11.735 10.1853 11.3137 10.1853C10.9344 10.1853 10.5342 10.4179 10.1128 10.8833C9.71249 11.3275 9.23845 12.015 8.69067 12.9458C8.1429 13.8553 7.36337 15.2515 6.35209 17.1341L3.50787 22.3695Z" fill="#271202"/>
<path d="M19.2893 2.37973L17.4564 1.84033V1.68168L22.8288 0H22.8604L17.3616 19.2917C17.0877 20.2648 16.9508 20.9945 16.9508 21.4811C16.9508 22.1157 17.1509 22.433 17.5512 22.433C17.8462 22.433 18.1411 22.2637 18.4361 21.9253C18.7521 21.5657 19.2683 20.8888 19.9846 19.8946H20.269C19.2367 21.3965 18.3413 22.5705 17.5828 23.4166C16.8244 24.2416 16.0975 24.654 15.4022 24.654C14.9809 24.654 14.6333 24.4742 14.3594 24.1146C14.0855 23.7339 13.9485 23.1627 13.9485 22.4012C13.9485 21.5974 14.1171 20.5821 14.4542 19.3552L19.2893 2.37973Z" fill="#271202"/>
<path d="M30.4319 22.3695C29.7577 23.1945 28.9887 23.7868 28.1249 24.1464C27.2822 24.4848 26.3131 24.654 25.2175 24.654C23.4056 24.654 21.9519 24.2204 20.8564 23.3531C19.7608 22.4647 19.2131 21.2378 19.2131 19.6725C19.2131 18.2341 19.7187 17.1235 20.73 16.3408C21.7623 15.537 23.3635 14.9447 25.5335 14.564L30.3055 13.7073V12.7554C30.3055 11.9939 30.0632 11.4227 29.5787 11.042C29.0941 10.6612 28.3356 10.4708 27.3033 10.4708C26.3341 10.4708 25.5335 10.6824 24.9015 11.1054C24.2694 11.5285 23.9324 12.1737 23.8902 13.0409H19.9715C19.9926 11.1795 20.6878 9.77277 22.0573 8.82088C23.4267 7.86899 25.1649 7.39304 27.2717 7.39304C29.5681 7.39304 31.2957 7.82668 32.4545 8.69396C33.6132 9.56124 34.1926 10.767 34.1926 12.3112V24.2733H30.4319V22.3695ZM23.2898 19.5455C23.2898 20.2225 23.5215 20.7513 23.985 21.132C24.4696 21.5128 25.1754 21.7032 26.1024 21.7032C27.2611 21.7032 28.2514 21.3859 29.073 20.7513C29.8947 20.0955 30.3055 19.1331 30.3055 17.8639V16.4043L26.2604 17.2293C25.2281 17.4408 24.4696 17.7052 23.985 18.0225C23.5215 18.3398 23.2898 18.8475 23.2898 19.5455Z" fill="#271202"/>
<path d="M41.3992 31C39.1238 31 37.3436 30.4923 36.0584 29.477C34.7943 28.4616 34.099 27.0549 33.9726 25.2569H37.8597C38.0915 27.0126 39.3134 27.8905 41.5256 27.8905C44.3277 27.8905 45.7287 26.5367 45.7287 23.8291V21.8618C44.5489 23.4483 42.8635 24.2416 40.6724 24.2416C39.1133 24.2416 37.7755 23.882 36.6588 23.1627C35.5633 22.4224 34.7311 21.4176 34.1623 20.1484C33.5934 18.8792 33.309 17.4302 33.309 15.8014C33.309 14.1938 33.5934 12.7554 34.1623 11.4862C34.7311 10.1958 35.5633 9.19106 36.6588 8.47185C37.7755 7.75265 39.1133 7.39304 40.6724 7.39304C42.9477 7.39304 44.6753 8.23917 45.8552 9.93142V7.7738H49.7107V23.8291C49.7107 26.1982 48.9417 27.9857 47.4037 29.1914C45.8657 30.3971 43.8642 31 41.3992 31ZM37.3541 15.8014C37.3541 17.4091 37.7017 18.6783 38.397 19.609C39.1133 20.5186 40.1772 20.9734 41.5888 20.9734C42.9793 20.9734 44.0222 20.5186 44.7175 19.609C45.4338 18.6783 45.792 17.4091 45.792 15.8014C45.792 14.1938 45.4338 12.9352 44.7175 12.0256C44.0222 11.0948 42.9793 10.6295 41.5888 10.6295C40.1772 10.6295 39.1133 11.0948 38.397 12.0256C37.7017 12.9352 37.3541 14.1938 37.3541 15.8014Z" fill="#271202"/>
<path d="M57.4049 24.654C55.7405 24.654 54.2973 24.2839 53.0753 23.5435C51.8534 22.782 50.9158 21.7561 50.2627 20.4657C49.6096 19.1542 49.283 17.6735 49.283 16.0235C49.283 14.3736 49.6096 12.9034 50.2627 11.6131C50.9158 10.3016 51.8534 9.27567 53.0753 8.53531C54.2973 7.7738 55.7405 7.39304 57.4049 7.39304C59.0693 7.39304 60.5124 7.76322 61.7344 8.50358C62.9564 9.24395 63.8939 10.291 64.547 11.6448C65.2001 12.9986 65.5267 14.564 65.5267 16.3408V17.2927H53.2333C53.4019 18.6042 53.8443 19.6407 54.5606 20.4023C55.298 21.1426 56.2461 21.5128 57.4049 21.5128C59.301 21.5128 60.6072 20.7513 61.3236 19.2283H65.2107C64.6629 20.8994 63.7043 22.2214 62.3348 23.1945C60.9654 24.1675 59.3221 24.654 57.4049 24.654ZM61.5132 14.4371C61.3025 13.2102 60.839 12.2583 60.1227 11.5814C59.4274 10.8833 58.5215 10.5343 57.4049 10.5343C56.2882 10.5343 55.3718 10.8833 54.6554 11.5814C53.9602 12.2583 53.4967 13.2102 53.2649 14.4371H61.5132Z" fill="#271202"/>
<path d="M75.9918 14.3419C75.9918 13.2842 75.739 12.4487 75.2333 11.8352C74.7277 11.2006 73.9271 10.8833 72.8316 10.8833C71.9678 10.8833 71.1461 11.1689 70.3666 11.74C69.6081 12.3112 69.1657 13.2419 69.0393 14.5322V24.2733H65.0573V7.7738H68.9128V10.0266C69.5238 9.22279 70.2612 8.5882 71.125 8.12283C71.9888 7.6363 72.979 7.39304 74.0956 7.39304C75.9497 7.39304 77.3823 7.98533 78.3936 9.16991C79.4259 10.3333 79.9421 11.8987 79.9421 13.8659V24.2733H75.9918V14.3419Z" fill="#271202"/>
<path d="M92.0806 24.2733V21.9887C91.5118 22.8349 90.7849 23.4906 89.9001 23.956C89.0363 24.4214 88.025 24.654 86.8662 24.654C85.3072 24.654 83.9693 24.2839 82.8527 23.5435C81.7572 22.8031 80.925 21.7772 80.3561 20.4657C79.7873 19.1542 79.5029 17.6735 79.5029 16.0235C79.5029 14.3736 79.7873 12.8929 80.3561 11.5814C80.925 10.2699 81.7572 9.24395 82.8527 8.50358C83.9693 7.76322 85.3072 7.39304 86.8662 7.39304C89.0573 7.39304 90.7428 8.20744 91.9226 9.83624V1.42784H95.9045V24.2733H92.0806ZM83.548 16.0235C83.548 17.6735 83.8956 18.9744 84.5909 19.9263C85.3072 20.857 86.3711 21.3224 87.7827 21.3224C89.1732 21.3224 90.2161 20.857 90.9114 19.9263C91.6277 18.9744 91.9858 17.6735 91.9858 16.0235C91.9858 14.3736 91.6277 13.0832 90.9114 12.1525C90.2161 11.2006 89.1732 10.7247 87.7827 10.7247C86.3711 10.7247 85.3072 11.2006 84.5909 12.1525C83.8956 13.0832 83.548 14.3736 83.548 16.0235Z" fill="#271202"/>
<path d="M106.506 22.3695C105.832 23.1945 105.063 23.7868 104.199 24.1464C103.356 24.4848 102.387 24.654 101.292 24.654C99.4799 24.654 98.0262 24.2204 96.9306 23.3531C95.8351 22.4647 95.2873 21.2378 95.2873 19.6725C95.2873 18.2341 95.7929 17.1235 96.8042 16.3408C97.8366 15.537 99.4378 14.9447 101.608 14.564L106.38 13.7073V12.7554C106.38 11.9939 106.137 11.4227 105.653 11.042C105.168 10.6612 104.41 10.4708 103.378 10.4708C102.408 10.4708 101.608 10.6824 100.976 11.1054C100.344 11.5285 100.007 12.1737 99.9645 13.0409H96.0458C96.0668 11.1795 96.7621 9.77277 98.1315 8.82088C99.501 7.86899 101.239 7.39304 103.346 7.39304C105.642 7.39304 107.37 7.82668 108.529 8.69396C109.687 9.56124 110.267 10.767 110.267 12.3112V24.2733H106.506V22.3695ZM99.364 19.5455C99.364 20.2225 99.5958 20.7513 100.059 21.132C100.544 21.5128 101.25 21.7032 102.177 21.7032C103.335 21.7032 104.326 21.3859 105.147 20.7513C105.969 20.0955 106.38 19.1331 106.38 17.8639V16.4043L102.335 17.2293C101.302 17.4408 100.544 17.7052 100.059 18.0225C99.5958 18.3398 99.364 18.8475 99.364 19.5455Z" fill="#271202"/>
<path d="M111.731 19.3552H116.25V24.2733H111.731V19.3552Z" fill="#271202"/>
</svg>
